<svg width="240" height="240" viewBox="0 0 240 240" fill="none" xmlns="http://www.w3.org/2000/svg">
<path d="M121.281 221.715C83.3891 236.82 75.1831 189.408 108.406 177.913C157.471 187.657 136.924 174.016 166.65 153.52C199.843 130.632 234.275 183.235 215.941 204.899C179.992 247.38 167.856 203.149 121.281 221.715Z" fill="#EEF5FF"/>
<path d="M56.1826 182.253C18.2905 197.358 10.0845 149.946 43.3069 138.451C92.7053 121.36 71.8253 134.554 101.551 114.058C134.745 91.1705 169.176 143.773 150.843 165.437C114.894 207.918 102.758 163.687 56.1826 182.253Z" fill="#EEF5FF"/>
<path fill-rule="evenodd" clip-rule="evenodd" d="M69.1226 72.8326C69.4137 72.7447 69.7209 72.7228 70.0217 72.7685C70.3955 72.8291 70.7548 72.9591 71.0809 73.1518C71.587 73.4968 72.0505 73.9007 72.4616 74.3548C73.0119 74.8994 73.5926 75.4741 74.2922 75.7899C74.8142 76.0493 75.4082 76.1251 75.978 76.0051C76.124 75.9632 76.2654 75.9069 76.4002 75.8372C76.4671 75.8113 76.5412 75.8109 76.6085 75.8361C76.6757 75.8613 76.7314 75.9103 76.7649 75.9737C76.7985 76.0372 76.8076 76.1108 76.7905 76.1804C76.7734 76.2501 76.7313 76.311 76.6722 76.3516C76.4975 76.4425 76.3126 76.5125 76.1213 76.56C75.4225 76.718 74.6901 76.6289 74.0489 76.3077C73.2737 75.9544 72.6308 75.3516 72.0454 74.7485C71.6689 74.3241 71.239 73.9502 70.7665 73.6362C70.5142 73.4875 70.2383 73.3834 69.9508 73.3283C69.7385 73.2945 69.5213 73.3118 69.3173 73.3787C69.2807 73.3916 69.2419 73.3971 69.2032 73.3948C69.1645 73.3925 69.1266 73.3824 69.0918 73.3653C69.0569 73.3481 69.0259 73.3241 69.0005 73.2948C68.9751 73.2655 68.9557 73.2314 68.9437 73.1945C68.9316 73.1576 68.9271 73.1187 68.9303 73.08C68.9335 73.0414 68.9444 73.0038 68.9624 72.9695C68.9804 72.9351 69.0051 72.9047 69.035 72.8801C69.0649 72.8555 69.0995 72.8371 69.1366 72.826L69.1226 72.8326Z" fill="#001244"/>
<path d="M151.874 30.9065C155.84 32.6608 165.794 45.6843 172.468 51.5001L161.122 58.2216L157.166 53.5499C150.158 52.6919 143.866 46.8761 142.34 44.0158C139.114 43.3802 133.073 41.0317 133.759 38.057C134.446 35.0824 137.367 36.0072 138.86 36.6746C141.244 33.7985 147.908 29.1522 151.874 30.9065Z" fill="#F5A78C"/>
<path fill-rule="evenodd" clip-rule="evenodd" d="M139.325 36.8237L139.325 36.8239L139.321 36.8271C139.318 36.8303 139.313 36.8355 139.305 36.8428C139.29 36.8574 139.268 36.8799 139.24 36.9099C139.183 36.9699 139.104 37.0588 139.016 37.1714C138.841 37.3959 138.639 37.7047 138.512 38.0588C138.512 38.0649 138.513 38.0765 138.517 38.0949C138.525 38.1411 138.545 38.2079 138.583 38.2972C138.658 38.4756 138.785 38.7047 138.956 38.9738C139.297 39.51 139.788 40.1635 140.307 40.8164C141.067 41.7715 141.853 42.6821 142.319 43.2224C142.491 43.4219 142.619 43.5709 142.687 43.653C142.691 43.6556 142.705 43.6669 142.739 43.6856C142.789 43.7134 142.861 43.7467 142.956 43.7846C143.146 43.8601 143.405 43.9443 143.716 44.0335C144.337 44.2115 145.142 44.4018 145.972 44.5767C146.802 44.7515 147.652 44.9099 148.361 45.0245C149.081 45.1407 149.629 45.2072 149.872 45.2072C150.32 45.2072 150.747 45.0013 151.043 44.6911C151.339 44.3794 151.473 43.9965 151.404 43.6518C151.269 42.9786 150.756 42.1757 150.105 41.4782L149.885 41.2425L152.21 38.9171C152.341 38.7867 152.552 38.7867 152.682 38.9171C152.813 39.0474 152.813 39.2587 152.682 39.389L150.808 41.2628C151.402 41.9493 151.906 42.7595 152.058 43.5209C152.18 44.1297 151.933 44.724 151.526 45.1512C151.118 45.5798 150.521 45.8746 149.872 45.8746C149.567 45.8746 148.965 45.798 148.255 45.6833C147.534 45.567 146.674 45.4066 145.835 45.2298C144.997 45.0532 144.175 44.8592 143.532 44.6751C143.212 44.5833 142.929 44.4921 142.71 44.4047C142.6 44.3611 142.5 44.316 142.416 44.2694C142.339 44.2271 142.245 44.167 142.177 44.0837C142.128 44.0237 142.015 43.8925 141.856 43.7086C141.396 43.1756 140.555 42.2 139.785 41.2318C139.261 40.5737 138.753 39.8984 138.393 39.3322C138.214 39.0502 138.064 38.7847 137.968 38.5556C137.92 38.4412 137.881 38.3261 137.86 38.216C137.841 38.1103 137.833 37.9788 137.878 37.8502C138.037 37.3996 138.286 37.0221 138.49 36.7608C138.592 36.6292 138.686 36.5244 138.754 36.4518C138.789 36.4155 138.817 36.387 138.837 36.3671C138.847 36.3572 138.855 36.3494 138.861 36.3438C138.864 36.341 138.867 36.3387 138.868 36.337L138.871 36.3349L138.871 36.3342L138.872 36.3337C138.872 36.3337 138.872 36.3336 139.098 36.5788L138.872 36.3336C139.007 36.2086 139.219 36.217 139.344 36.3525C139.468 36.4877 139.46 36.6985 139.325 36.8236C139.325 36.8236 139.325 36.8237 139.325 36.8237Z" fill="#614644"/>
<path fill-rule="evenodd" clip-rule="evenodd" d="M147.466 34.4201C147.579 34.5656 147.553 34.7752 147.407 34.8883C146.66 35.469 145.671 36.2459 144.871 37.0111C144.47 37.3941 144.126 37.7654 143.885 38.1003C143.634 38.448 143.532 38.7043 143.532 38.8674C143.532 39.0662 143.628 39.4057 143.831 39.8706C144.028 40.322 144.306 40.8494 144.626 41.4065C145.265 42.5201 146.058 43.7276 146.67 44.6405C146.772 44.7937 146.731 45.0009 146.578 45.1035C146.425 45.206 146.218 45.165 146.115 45.0119C145.503 44.0974 144.699 42.8737 144.047 41.7389C143.722 41.1718 143.43 40.6206 143.22 40.1375C143.015 39.6679 142.865 39.2168 142.865 38.8674C142.865 38.4823 143.077 38.0792 143.343 37.7098C143.619 37.3276 143.996 36.9243 144.41 36.5287C145.238 35.7367 146.252 34.9404 146.998 34.3612C147.144 34.2481 147.353 34.2745 147.466 34.4201Z" fill="#614644"/>
<path fill-rule="evenodd" clip-rule="evenodd" d="M149.46 35.6966C149.579 35.8374 149.561 36.0479 149.42 36.1668C149.251 36.3094 149.069 36.4591 148.881 36.6143C148.371 37.0342 147.814 37.4936 147.333 37.9575C147.005 38.2736 146.726 38.5792 146.532 38.8611C146.332 39.1503 146.249 39.3744 146.249 39.5348C146.249 39.7175 146.35 40.0575 146.566 40.5356C146.774 40.997 147.067 41.5397 147.401 42.1066C148.068 43.2396 148.883 44.4457 149.474 45.2482C149.583 45.3967 149.551 45.6056 149.402 45.7148C149.254 45.8239 149.045 45.7921 148.936 45.6436C148.334 44.8253 147.505 43.6002 146.825 42.4451C146.486 41.8678 146.18 41.3022 145.958 40.8103C145.743 40.3349 145.582 39.8764 145.582 39.5348C145.582 39.1708 145.757 38.8089 145.983 38.4819C146.213 38.1475 146.528 37.8066 146.869 37.4771C147.371 36.9935 147.961 36.5074 148.476 36.0832C148.659 35.9323 148.833 35.7892 148.989 35.6568C149.13 35.538 149.341 35.5558 149.46 35.6966Z" fill="#614644"/>
<path fill-rule="evenodd" clip-rule="evenodd" d="M162.997 51.8564C163.117 51.9971 163.099 52.2077 162.958 52.3267C162.163 52.9997 161.114 53.4334 160.148 53.7053C159.178 53.9782 158.262 54.0965 157.705 54.1215C157.52 54.1297 157.365 53.9872 157.356 53.803C157.348 53.6189 157.491 53.463 157.675 53.4548C158.182 53.432 159.048 53.3215 159.967 53.0629C160.89 52.8033 161.835 52.4028 162.527 51.8172C162.668 51.6982 162.878 51.7157 162.997 51.8564Z" fill="#614644"/>
<path fill-rule="evenodd" clip-rule="evenodd" d="M144.989 34.0418C145.101 34.1885 145.073 34.3978 144.926 34.5094C144.638 34.7281 144.305 34.9641 143.961 35.2079C143.861 35.2788 143.76 35.3503 143.659 35.4223C143.206 35.7447 142.747 36.0792 142.335 36.4185C141.921 36.7591 141.566 37.0948 141.318 37.4166C141.066 37.7433 140.952 38.0187 140.952 38.2445C140.952 38.497 141.071 38.8796 141.315 39.3755C141.552 39.86 141.887 40.4114 142.27 40.9875C142.855 41.8699 143.539 42.7885 144.137 43.5912C144.321 43.8384 144.497 44.0746 144.659 44.2954C144.768 44.4439 144.736 44.6527 144.588 44.7619C144.439 44.871 144.23 44.8391 144.121 44.6906C143.964 44.4762 143.791 44.2444 143.609 44.0002C143.01 43.1954 142.311 42.2557 141.714 41.3567C141.324 40.77 140.972 40.1913 140.716 39.6695C140.465 39.1592 140.284 38.6595 140.284 38.2446C140.284 37.8031 140.5 37.3837 140.79 37.0089C141.083 36.6293 141.481 36.2568 141.911 35.9031C142.342 35.5481 142.818 35.2022 143.272 34.8787C143.377 34.804 143.48 34.7307 143.582 34.6587C143.924 34.4163 144.244 34.1895 144.522 33.9783C144.668 33.8667 144.878 33.8951 144.989 34.0418Z" fill="#614644"/>
<path fill-rule="evenodd" clip-rule="evenodd" d="M78.5488 75.7569C78.3165 75.5606 78.0433 75.4186 77.7491 75.341C77.3819 75.2482 77.0006 75.2248 76.6248 75.2721C76.0232 75.3877 75.4375 75.5742 74.8798 75.8277C74.1585 76.109 73.3973 76.4057 72.6298 76.4177C72.0477 76.4484 71.4725 76.2821 70.9972 75.9456C70.8799 75.8491 70.7725 75.7413 70.6764 75.6238C70.6253 75.5735 70.5575 75.5437 70.4857 75.5401C70.414 75.5365 70.3435 75.5594 70.2875 75.6043C70.2315 75.6492 70.1939 75.7131 70.1819 75.7838C70.17 75.8545 70.1844 75.9271 70.2225 75.9878C70.3468 76.1407 70.4887 76.2783 70.6453 76.3979C71.2238 76.8205 71.9314 77.0296 72.6475 76.9896C73.4992 76.9732 74.3287 76.6754 75.1054 76.3543C75.6195 76.1144 76.1626 75.942 76.7209 75.8415C77.0115 75.8053 77.3061 75.8193 77.5918 75.883C77.8 75.9363 77.9925 76.0384 78.1532 76.1809C78.1816 76.2072 78.2151 76.2276 78.2515 76.2409C78.288 76.2542 78.3267 76.26 78.3655 76.2581C78.4043 76.2561 78.4423 76.2465 78.4773 76.2297C78.5122 76.2128 78.5435 76.1892 78.5692 76.1602C78.5949 76.1311 78.6146 76.0972 78.627 76.0604C78.6394 76.0237 78.6443 75.9849 78.6414 75.9462C78.6386 75.9075 78.628 75.8699 78.6103 75.8354C78.5926 75.8009 78.5682 75.7703 78.5385 75.7453L78.5488 75.7569Z" fill="#001244"/>
<path d="M89.2292 86.5814C106.438 76.2846 121.836 84.7699 127.413 94.304C127.413 94.304 150.295 89.4893 168.998 85.4373L159.083 63.3659L164.851 56.5014L168.998 54.1178L178.58 51.9727C187.796 64.7642 208.374 93.732 204.179 101.693C199.984 109.654 180.28 120.38 164.851 126.911C167.234 184.592 189.735 214.624 185.254 223.777C181.669 231.099 77.7406 232.596 75.5641 227.734C73.3876 222.871 77.7406 204.613 77.7406 204.613C73.434 193.792 55.8884 170.815 57.1469 155.37C58.4054 139.925 72.529 127.228 76.9465 121.286C74.5312 113.452 69.9638 98.1086 89.2292 86.5814Z" fill="#6DA6FF"/>
<path d="M103.674 149.983C101.665 131.05 94.95 121.143 89.897 109.988C94.0761 98.118 107.433 72.9559 112.35 100.215C120.93 147.79 167.171 221.108 168.41 227.019C169.65 232.93 99.7648 232.93 97.7149 227.019C95.6651 221.108 107.487 185.927 103.674 149.983Z" fill="#F0F3F8"/>
<path d="M89.8961 110.417C89.8961 110.417 87.6764 91.9455 87.7321 91.584C89.3543 86.5346 107.776 88.1685 116.354 92.5877C116.168 97.114 114.862 109.776 106.295 112.752C97.7286 115.729 91.3375 113.294 89.8961 110.417Z" fill="#F5A78C"/>
<path d="M73.981 75.8739C65.9341 82.0676 83.9891 99.6296 89.6102 101.884C97.3014 93.2652 111.4 79.6168 114.485 76.8165C117.57 74.0161 118.802 65.2205 114.698 60.9125C117.914 56.098 115.783 52.8362 112.9 49.3261C104.15 59.6895 91.2819 52.9511 81.7561 55.8484C72.6523 58.6174 69.2306 68.842 73.981 75.8739Z" fill="#001244"/>
<mask id="mask0_6456_13359" style="mask-type:alpha" maskUnits="userSpaceOnUse" x="87" y="88" width="30" height="27">
<path d="M89.8966 110.417C89.8966 110.417 87.6769 91.9455 87.7326 91.584C89.3548 86.5346 107.777 88.1685 116.354 92.5877C116.169 97.114 114.862 109.776 106.296 112.752C97.729 115.729 91.338 113.294 89.8966 110.417Z" fill="#F5A78C"/>
</mask>
<g mask="url(#mask0_6456_13359)">
<path d="M85.8448 106.079C99.3451 110.236 112.572 103.807 117.498 100.073L111.158 93.2083L91.7083 91.4922C84.1287 94.6225 72.3445 101.922 85.8448 106.079Z" fill="#F0816C"/>
</g>
<path d="M112.68 100.439C125.64 94.8212 117.448 73.7483 111.233 62.8744C102.767 72.4323 93.9112 74.5336 85.0933 75.0418C88.5822 83.2246 85.8373 87.949 85.8373 87.949C85.8373 87.949 84.0347 86.165 81.8414 86.6709C80.2237 87.044 78.1709 88.8024 79.1628 92.4919C80.1547 96.1814 84.7996 97.3263 87.1109 97.023C90.2341 100.503 99.7206 106.058 112.68 100.439Z" fill="#F5A78C"/>
<path fill-rule="evenodd" clip-rule="evenodd" d="M158.943 56.6723C158.943 56.6723 160.71 62.3954 159.694 62.848C159.593 62.883 159.502 62.9423 159.429 63.0208C159.429 63.0208 172.171 64.1517 177.983 52.198C176.44 52.5179 171.965 49.5008 171.965 49.5008C169.081 54.5004 158.943 56.6723 158.943 56.6723Z" fill="#4B81D0"/>
<path d="M57.004 208.476C66.9 212.145 81.8995 205.633 81.3881 198.085C83.1728 187.116 76.1178 166.67 71.1862 155.541C69.8023 154.547 60.7289 151.826 60.1134 151.446C59.4979 151.067 55.3138 151.596 53.2987 151.908L45.4477 157.285C42.8463 172.522 47.1079 204.807 57.004 208.476Z" fill="#6DA6FF"/>
<path fill-rule="evenodd" clip-rule="evenodd" d="M57.2734 151.892C55.9118 152.015 54.3726 152.223 53.3714 152.378C53.1112 152.419 52.8677 152.24 52.8274 151.98C52.7871 151.72 52.9653 151.477 53.2255 151.436C54.2394 151.279 55.7998 151.067 57.1879 150.942C57.8807 150.88 58.5403 150.838 59.071 150.837C59.3356 150.837 59.5788 150.846 59.783 150.87C59.9662 150.892 60.1899 150.933 60.3622 151.039C60.3621 151.039 60.362 151.039 60.362 151.039C60.3621 151.039 60.3714 151.044 60.3952 151.055C60.4216 151.068 60.4574 151.083 60.5037 151.102C60.5962 151.14 60.7195 151.186 60.8718 151.242C61.1761 151.353 61.582 151.492 62.0609 151.654C62.4817 151.796 62.9776 151.962 63.509 152.139C64.149 152.352 64.8405 152.583 65.5141 152.811C66.7743 153.237 68.0644 153.685 69.1278 154.089C69.6594 154.291 70.139 154.484 70.5322 154.659C70.9163 154.831 71.2484 154.998 71.4641 155.153L71.5693 155.229L71.6217 155.347C76.5513 166.471 84.1117 185.06 79.1071 204.02C79.0399 204.275 78.779 204.427 78.5245 204.359C78.2699 204.292 78.118 204.031 78.1852 203.777C83.0773 185.244 75.7403 167.007 70.8068 155.862C70.6627 155.775 70.4419 155.663 70.1438 155.53C69.7736 155.365 69.3125 155.179 68.7892 154.98C67.7429 154.582 66.4667 154.14 65.2086 153.714C64.5104 153.478 63.844 153.256 63.2222 153.048C62.6993 152.874 62.2079 152.71 61.7557 152.557C61.2758 152.395 60.8611 152.252 60.5459 152.138C60.3886 152.081 60.2524 152.029 60.1437 151.985C60.0452 151.945 59.9392 151.899 59.8629 151.851C59.8657 151.853 59.8671 151.854 59.867 151.854C59.8665 151.856 59.815 151.835 59.6695 151.817C59.5192 151.799 59.3187 151.79 59.0731 151.791C58.5832 151.792 57.9554 151.831 57.2734 151.892Z" fill="#0057B2"/>
<path d="M50.7936 117.268C48.7748 123.145 51.8508 151.532 51.5825 152.235L63.6493 150.785C63.1732 147.904 62.8325 138.728 62.8325 138.728C62.8325 138.728 66.813 132.192 68.3667 120.923C69.0606 120.542 70.5575 119.055 70.4 116.73C70.3041 115.315 68.6424 114.111 66.336 114.267C65.0432 111.511 51.8493 114.195 50.7936 117.268Z" fill="#F5A78C"/>
<path fill-rule="evenodd" clip-rule="evenodd" d="M66.2567 113.982C66.4102 113.88 66.6173 113.921 66.7194 114.075C67.514 115.27 68.9417 118.031 68.6854 120.744C68.668 120.928 68.5052 121.062 68.3218 121.045C68.1383 121.028 68.0036 120.865 68.0209 120.681C68.2553 118.201 66.9326 115.601 66.1636 114.444C66.0616 114.291 66.1033 114.084 66.2567 113.982Z" fill="#614644"/>
<path fill-rule="evenodd" clip-rule="evenodd" d="M67.162 115.396C67.1883 115.405 67.2985 115.444 67.3664 115.559C67.4598 115.718 67.4067 115.923 67.2478 116.016C67.1482 116.074 67.0307 116.075 66.9339 116.029C66.9073 116.027 66.8663 116.025 66.8081 116.025C66.6598 116.025 66.4418 116.036 66.1623 116.058C65.6057 116.101 64.8321 116.185 63.9428 116.294C62.1654 116.513 59.9407 116.835 58.097 117.143C57.9153 117.174 57.7433 117.051 57.7128 116.869C57.6824 116.688 57.8051 116.516 57.9868 116.485C59.8402 116.175 62.0744 115.852 63.8613 115.632C64.7542 115.522 65.5392 115.437 66.1105 115.393C66.3949 115.371 66.6332 115.358 66.8076 115.358C66.8932 115.358 66.9745 115.36 67.0422 115.369C67.0749 115.374 67.1181 115.381 67.1617 115.396L67.162 115.396ZM66.9611 116.032C66.9611 116.032 66.9608 116.032 66.9603 116.032C66.9608 116.032 66.9611 116.032 66.9611 116.032Z" fill="#614644"/>
<path fill-rule="evenodd" clip-rule="evenodd" d="M68.3324 120.403C68.3587 120.412 68.4689 120.45 68.5368 120.566C68.6302 120.725 68.5771 120.929 68.4182 121.023C68.3186 121.081 68.2011 121.082 68.1043 121.036C68.0777 121.033 68.0367 121.032 67.9786 121.032C67.8302 121.032 67.6122 121.043 67.3327 121.065C66.7761 121.108 66.0025 121.192 65.1132 121.301C63.3358 121.52 61.1111 121.841 59.2674 122.15C59.0857 122.181 58.9137 122.058 58.8832 121.876C58.8528 121.694 58.9755 121.522 59.1572 121.492C61.0106 121.182 63.2448 120.859 65.0317 120.639C65.9246 120.529 66.7096 120.444 67.2809 120.4C67.5653 120.377 67.8036 120.365 67.978 120.364C68.0636 120.364 68.145 120.367 68.2126 120.376C68.2453 120.381 68.2885 120.388 68.3321 120.403L68.3324 120.403ZM68.1315 121.039C68.1315 121.039 68.1312 121.039 68.1307 121.039C68.1313 121.039 68.1315 121.039 68.1315 121.039Z" fill="#614644"/>
<path fill-rule="evenodd" clip-rule="evenodd" d="M68.3323 117.812C68.3522 117.995 68.2199 118.16 68.0367 118.179C65.4784 118.458 60.003 119.205 57.2798 119.794C57.0997 119.832 56.9221 119.718 56.8832 119.538C56.8443 119.358 56.9588 119.18 57.1389 119.141C59.8966 118.546 65.3997 117.796 67.9644 117.516C68.1476 117.496 68.3123 117.628 68.3323 117.812Z" fill="#614644"/>
<path fill-rule="evenodd" clip-rule="evenodd" d="M66.9181 123.755C67.0464 123.887 67.0431 124.098 66.9108 124.226C66.6087 124.519 65.9304 124.924 65.1152 125.267C64.3528 125.589 63.4305 125.874 62.5126 125.969L61.3639 129.548C63.0754 132.645 63.2484 136.333 63.2283 138.097C63.2262 138.281 63.0751 138.429 62.8908 138.427C62.7065 138.425 62.5589 138.274 62.561 138.089C62.581 136.329 62.3994 132.712 60.7118 129.75L60.6392 129.623L62.0142 125.338L62.2401 125.322C63.1354 125.262 64.0737 124.982 64.8559 124.652C65.6483 124.318 66.2344 123.953 66.4463 123.747C66.5786 123.619 66.7898 123.622 66.9181 123.755Z" fill="#614644"/>
<path fill-rule="evenodd" clip-rule="evenodd" d="M51.3372 150.164C51.3372 150.164 48.0089 156.377 46.8627 156.353C46.7532 156.341 46.6424 156.357 46.5401 156.398C46.5401 156.398 57.9273 163.05 68.5995 154.454C67.0192 154.074 63.6562 149.329 63.6562 149.329C58.7705 152.726 51.3372 150.164 51.3372 150.164Z" fill="#4B81D0"/>
<path fill-rule="evenodd" clip-rule="evenodd" d="M77.0705 159.48C77.3281 159.426 77.5809 159.591 77.6352 159.848C78.4102 163.53 78.5352 170.651 78.5034 173.728C78.5007 173.991 78.2851 174.203 78.0219 174.2C77.7586 174.197 77.5474 173.982 77.5501 173.718C77.5819 170.63 77.4526 163.609 76.7022 160.045C76.648 159.787 76.8129 159.534 77.0705 159.48Z" fill="#0057B2"/>
<path fill-rule="evenodd" clip-rule="evenodd" d="M169.18 109.15C169.405 109.285 169.479 109.578 169.343 109.804C167.743 112.472 166.738 116.064 166.138 119.363C165.539 122.656 165.352 125.606 165.359 126.956C165.361 127.219 165.149 127.434 164.885 127.435C164.622 127.437 164.408 127.225 164.406 126.961C164.398 125.547 164.592 122.538 165.2 119.192C165.808 115.853 166.837 112.128 168.526 109.314C168.661 109.088 168.954 109.015 169.18 109.15Z" fill="#0057B2"/>
<path fill-rule="evenodd" clip-rule="evenodd" d="M168.769 85.1341C168.99 84.9903 169.285 85.0525 169.429 85.273C169.778 85.8078 170.381 86.6573 171.05 87.4544C171.732 88.2676 172.433 88.9662 172.976 89.2622C173.207 89.3883 173.292 89.6779 173.166 89.909C173.04 90.1401 172.751 90.2253 172.519 90.0992C171.804 89.7088 171.003 88.8819 170.32 88.0672C169.623 87.2364 168.996 86.3554 168.63 85.7938C168.486 85.5733 168.549 85.2779 168.769 85.1341Z" fill="#0057B2"/>
<path fill-rule="evenodd" clip-rule="evenodd" d="M94.0371 130.177C94.2871 130.094 94.5567 130.23 94.6393 130.48C96.7763 136.947 98.4214 149.219 98.489 165.185C98.5566 181.163 97.0443 200.879 92.843 222.248C92.7922 222.507 92.5416 222.675 92.2833 222.624C92.0249 222.573 91.8567 222.323 91.9075 222.064C96.0961 200.759 97.603 181.107 97.5356 165.189C97.4681 149.257 95.8239 137.103 93.7341 130.779C93.6515 130.529 93.7872 130.259 94.0371 130.177Z" fill="#0057B2"/>
<mask id="mask1_6456_13359" style="mask-type:alpha" maskUnits="userSpaceOnUse" x="57" y="86" width="42" height="70">
<path d="M76.9465 121.285C74.5312 113.451 69.9638 98.1083 89.2292 86.5811C97.8417 95.4478 97.8575 118.997 98.811 121.285C100.003 124.145 90.0396 140.02 89.2292 141.688C88.5809 143.023 69.2553 154.654 57.147 155.37C58.4055 139.924 72.529 127.228 76.9465 121.285Z" fill="#6DA6FF"/>
</mask>
<g mask="url(#mask1_6456_13359)">
<path d="M89.5149 131.582C80.8961 127.578 76.6439 121.397 75.5951 118.806C67.9996 111.418 63.7251 115.088 64.1065 116.947C67.3724 132.865 82.5868 132.393 89.5149 131.582Z" fill="#4B81D0"/>
</g>
<mask id="mask2_6456_13359" style="mask-type:alpha" maskUnits="userSpaceOnUse" x="89" y="81" width="80" height="49">
<path d="M89.2295 86.5824C106.439 76.2856 121.836 84.7709 127.414 94.305C127.414 94.305 150.295 89.4903 168.999 85.4383L127.414 129.247L89.2295 86.5824Z" fill="#6DA6FF"/>
</mask>
<g mask="url(#mask2_6456_13359)">
<path d="M126.603 114.894C132.753 99.6869 126.412 93.3149 124.935 89.6284C125.316 81.1431 129.292 69.359 135.47 85.7195C140.276 98.4475 132.133 110.381 126.603 114.894Z" fill="#4B81D0"/>
</g>
<path fill-rule="evenodd" clip-rule="evenodd" d="M124.146 118.05C124.407 118.01 124.65 118.188 124.69 118.448C126.252 128.598 133.421 147.383 142.782 167.161C152.137 186.925 163.647 207.608 173.847 221.541C174.003 221.753 173.957 222.052 173.744 222.207C173.532 222.363 173.233 222.317 173.078 222.104C162.828 208.103 151.289 187.36 141.921 167.569C132.56 147.793 125.333 128.895 123.748 118.593C123.708 118.333 123.886 118.09 124.146 118.05Z" fill="#0057B2"/>
<path fill-rule="evenodd" clip-rule="evenodd" d="M105.761 75.3458C105.961 75.4122 106.177 75.3041 106.243 75.1042C106.808 73.4066 108.092 72.6756 109.275 72.3636C109.869 72.207 110.43 72.1591 110.844 72.1509C111.05 72.1469 111.218 72.1527 111.333 72.1593C111.391 72.1626 111.435 72.1662 111.464 72.1688C111.478 72.1701 111.489 72.1712 111.496 72.1719L111.503 72.1726L111.506 72.173L111.509 72.1733C111.511 72.1735 111.784 72.0937 111.925 71.8503C111.956 71.642 111.813 71.4479 111.604 71.4168C111.599 71.4159 111.593 71.4152 111.588 71.4147L111.587 71.4145C111.584 71.4142 111.58 71.4138 111.575 71.4133C111.565 71.4122 111.55 71.4108 111.532 71.4091C111.496 71.4059 111.443 71.4017 111.377 71.3979C111.245 71.3902 111.057 71.3838 110.829 71.3884C110.373 71.3974 109.749 71.4499 109.081 71.626C107.74 71.9794 106.191 72.8432 105.52 74.8636C105.453 75.0635 105.561 75.2794 105.761 75.3458ZM111.59 71.4149C111.59 71.4149 111.59 71.4149 111.59 71.4149L111.59 71.4149Z" fill="#614644"/>
<path fill-rule="evenodd" clip-rule="evenodd" d="M94.5112 80.6847C94.7111 80.7511 94.927 80.6429 94.9934 80.443C95.5576 78.7455 96.8416 78.0145 98.0253 77.7024C98.6193 77.5459 99.1802 77.498 99.5939 77.4898C99.8002 77.4857 99.9681 77.4915 100.083 77.4982C100.141 77.5015 100.185 77.5051 100.214 77.5077C100.228 77.509 100.239 77.51 100.246 77.5107L100.253 77.5115L100.256 77.5119L100.259 77.5121C100.261 77.5124 100.534 77.4326 100.675 77.1892C100.706 76.9808 100.563 76.7867 100.354 76.7556C100.349 76.7548 100.343 76.7541 100.338 76.7535L100.337 76.7534C100.334 76.7531 100.33 76.7527 100.325 76.7521C100.315 76.7511 100.3 76.7496 100.282 76.748C100.246 76.7447 100.193 76.7406 100.127 76.7367C99.9952 76.7291 99.8073 76.7227 99.5788 76.7272C99.1232 76.7362 98.4991 76.7887 97.8309 76.9649C96.4903 77.3183 94.9411 78.1821 94.2696 80.2025C94.2032 80.4023 94.3114 80.6182 94.5112 80.6847ZM100.34 76.7537C100.34 76.7538 100.34 76.7538 100.34 76.7537L100.34 76.7537Z" fill="#614644"/>
<path fill-rule="evenodd" clip-rule="evenodd" d="M101.004 81.3857C99.4903 81.3857 98.3476 82.49 98.0153 83.3805C97.9141 83.6518 97.612 83.7897 97.3407 83.6884C97.0694 83.5872 96.9315 83.2852 97.0327 83.0138C97.495 81.775 98.99 80.3369 101.004 80.3369C101.294 80.3369 101.528 80.5717 101.528 80.8613C101.528 81.1509 101.294 81.3857 101.004 81.3857Z" fill="#614644"/>
<path fill-rule="evenodd" clip-rule="evenodd" d="M109.139 77.5441C109.89 76.2298 111.416 75.7855 112.354 75.9387C112.639 75.9854 112.909 75.7916 112.956 75.5058C113.002 75.22 112.808 74.9504 112.523 74.9037C111.218 74.6905 109.227 75.2752 108.228 77.0238C108.085 77.2753 108.172 77.5956 108.423 77.7393C108.675 77.8829 108.995 77.7956 109.139 77.5441Z" fill="#614644"/>
<path fill-rule="evenodd" clip-rule="evenodd" d="M105.971 80.706C106.355 82.1985 106.805 83.8869 108.097 84.7179C108.461 84.9729 108.878 85.1323 109.214 85.4018C109.639 85.778 109.922 86.289 110.015 86.8488C110.108 87.4087 110.006 87.9834 109.726 88.4765C109.665 88.5671 109.572 88.6313 109.466 88.6562C109.359 88.6812 109.247 88.6651 109.152 88.6112C109.057 88.5573 108.985 88.4695 108.952 88.3653C108.918 88.2611 108.925 88.1481 108.971 88.0489C109.142 87.7277 109.203 87.3587 109.143 86.9992C109.084 86.6398 108.907 86.3099 108.641 86.0609C108.343 85.8083 107.929 85.6476 107.617 85.4316C106.122 84.4706 105.552 82.6362 105.114 80.9387C105.1 80.8841 105.096 80.8272 105.104 80.7712C105.111 80.7152 105.129 80.6613 105.158 80.6125C105.186 80.5637 105.224 80.5209 105.269 80.4867C105.314 80.4525 105.365 80.4275 105.419 80.4131C105.474 80.3986 105.531 80.3951 105.587 80.4027C105.642 80.4103 105.696 80.4288 105.745 80.4572C105.794 80.4857 105.837 80.5234 105.871 80.5684C105.905 80.6133 105.93 80.6646 105.945 80.7192L105.971 80.706Z" fill="#614644"/>
<path d="M111.508 91.0696C107.467 93.0394 104.041 92.4881 102.403 91.7914C102.157 91.6868 101.866 91.8294 101.849 92.096C101.719 94.2421 102.488 98.3907 106.788 98.2301C111.751 98.0447 112.179 94.2044 112.068 91.3911C112.057 91.1137 111.757 90.948 111.508 91.0696Z" fill="#614644"/>
<mask id="mask3_6456_13359" style="mask-type:alpha" maskUnits="userSpaceOnUse" x="101" y="91" width="12" height="8">
<path d="M111.508 91.0696C107.467 93.0394 104.041 92.4881 102.404 91.7914C102.158 91.6868 101.866 91.8294 101.85 92.096C101.719 94.2422 102.489 98.3907 106.788 98.2301C111.751 98.0447 112.179 94.2044 112.069 91.3911C112.058 91.1137 111.758 90.948 111.508 91.0696Z" fill="#614644"/>
</mask>
<g mask="url(#mask3_6456_13359)">
<path d="M114.364 90.9029C108.214 95.4316 102.125 93.9358 101.032 91.7981C100.945 91.628 101.041 91.4331 101.217 91.358L107.904 88.5019C107.926 88.4926 107.948 88.4855 107.971 88.4804C112.395 87.5047 122.3 85.0585 114.364 90.9029Z" fill="#F0F3F8"/>
</g>
<path fill-rule="evenodd" clip-rule="evenodd" d="M150.437 22.5239C150.647 22.5233 150.818 22.6936 150.819 22.9042L150.831 27.4598C150.831 27.6704 150.661 27.8416 150.45 27.8422C150.24 27.8427 150.068 27.6724 150.068 27.4618L150.056 22.9062C150.056 22.6956 150.226 22.5244 150.437 22.5239Z" fill="#614644"/>
<path fill-rule="evenodd" clip-rule="evenodd" d="M158.634 26.5654C158.73 26.7531 158.655 26.9827 158.467 27.0781L154.263 29.2128C154.075 29.3081 153.846 29.2332 153.751 29.0454C153.655 28.8576 153.73 28.6281 153.918 28.5327L158.121 26.398C158.309 26.3026 158.539 26.3776 158.634 26.5654Z" fill="#614644"/>
<path fill-rule="evenodd" clip-rule="evenodd" d="M155.884 21.8281C156.066 21.934 156.128 22.1675 156.022 22.3495L152.616 28.2045C152.51 28.3865 152.277 28.4483 152.095 28.3424C151.913 28.2365 151.851 28.003 151.957 27.821L155.363 21.966C155.468 21.784 155.702 21.7222 155.884 21.8281Z" fill="#614644"/>
<path d="M118.893 10.4397L116.199 9.21597C114.335 9.79502 112.893 12.1096 113.189 14.8047C113.446 17.1506 112.092 18.693 110.596 19.3191L113.515 21.1835C115.25 20.686 117.301 18.1355 117.04 15.6907C116.714 12.6448 117.853 10.9853 118.893 10.4397Z" fill="#F9B100"/>
<path d="M85.0119 28.5088L82.038 29.5153C80.9849 31.3291 81.4857 34.1952 83.6161 36.092C85.4706 37.7431 85.496 39.9399 84.7641 41.5225L88.3656 40.8541C89.3758 39.1977 89.1859 35.7026 87.2588 33.9769C84.8577 31.8268 84.5811 29.6954 85.0119 28.5088Z" fill="#1ACF64"/>
<path d="M138.442 215.08L136.129 215.677C135.225 216.996 135.438 219.202 136.942 220.763C138.251 222.121 138.143 223.791 137.496 224.953L140.265 224.647C141.127 223.446 141.187 220.78 139.827 219.36C138.132 217.592 138.046 215.957 138.442 215.08Z" fill="#1ACF64"/>
<path d="M195.944 130.761L193.359 130.457C191.953 131.442 191.365 133.767 192.335 135.945C193.179 137.841 192.458 139.496 191.372 140.422L194.317 141.201C195.638 140.32 196.672 137.634 195.798 135.656C194.709 133.192 195.219 131.496 195.944 130.761Z" fill="#1ACF64"/>
<path d="M181.517 161.86L179.307 162.722C178.596 164.116 179.118 166.239 180.831 167.578C182.322 168.743 182.449 170.383 181.972 171.593L184.675 170.96C185.361 169.685 185.044 167.081 183.494 165.863C181.564 164.345 181.248 162.763 181.517 161.86Z" fill="#E49FE3"/>
<path d="M39.2814 109.168L37.0113 109.856C36.195 111.191 36.5515 113.348 38.1555 114.815C39.5518 116.092 39.5524 117.737 38.9824 118.906L41.7269 118.484C42.5092 117.266 42.3945 114.645 40.9436 113.311C39.136 111.649 38.9437 110.047 39.2814 109.168Z" fill="#E49FE3"/>
<path d="M137.271 60.2958L134.619 61.0892C133.661 62.6434 134.067 65.1616 135.932 66.8802C137.556 68.3762 137.549 70.296 136.879 71.6575L140.083 71.1776C141.001 69.7597 140.879 66.7009 139.192 65.1376C137.09 63.19 136.873 61.3199 137.271 60.2958Z" fill="#8268D3"/>
<path d="M40.9312 185.568L38.2269 184.717C36.5217 185.485 35.42 187.853 36.0144 190.382C36.5319 192.583 35.4237 194.207 34.0735 194.977L37.0661 196.41C38.6589 195.735 40.3121 193.071 39.7794 190.777C39.1158 187.918 40.0056 186.207 40.9312 185.568Z" fill="#F9B100"/>
<path d="M198.179 71.9223L195.546 71.5585C194.09 72.5343 193.441 74.8963 194.385 77.141C195.208 79.0949 194.437 80.7696 193.309 81.6918L196.299 82.5496C197.666 81.6768 198.779 78.9559 197.928 76.9179C196.868 74.3787 197.423 72.6584 198.179 71.9223Z" fill="#FF6141"/>
<path fill-rule="evenodd" clip-rule="evenodd" d="M39.7615 96.0481C28.0906 96.0481 18.6295 86.587 18.6295 74.9161C18.6295 63.2453 28.0906 53.7842 39.7615 53.7842C51.4324 53.7842 60.8935 63.2453 60.8935 74.9161C60.8935 77.2795 60.5055 79.5522 59.7898 81.6741L63.2383 94.5442C63.5233 95.6076 62.5502 96.5807 61.4868 96.2957L50.2271 93.2787C47.1417 95.041 43.5692 96.0481 39.7615 96.0481Z" fill="#F0F3F8"/>
<path d="M30.8665 68.2126C31.3906 67.6888 32.013 67.2734 32.698 66.9899C33.3829 66.7064 34.1171 66.5605 34.8586 66.5605C35.6 66.5605 36.3342 66.7064 37.0192 66.9899C37.7042 67.2734 38.3265 67.6888 38.8507 68.2126L39.9385 69.2991L41.0263 68.2126C42.0851 67.1552 43.5211 66.5611 45.0184 66.5611C46.5157 66.5611 47.9517 67.1552 49.0105 68.2126C50.0693 69.27 50.6641 70.7042 50.6641 72.1997C50.6641 73.6951 50.0693 75.1293 49.0105 76.1868L47.9227 77.2732L39.9385 85.2474L31.9543 77.2732L30.8665 76.1868C30.3421 75.6633 29.9261 75.0417 29.6423 74.3576C29.3584 73.6735 29.2124 72.9402 29.2124 72.1997C29.2124 71.4592 29.3584 70.7259 29.6423 70.0418C29.9261 69.3577 30.3421 68.7361 30.8665 68.2126Z" fill="#FF6141"/>
</svg>
